<svg version="1.1" id="Layer_1" xmlns="http://www.w3.org/2000/svg" xmlns:xlink="http://www.w3.org/1999/xlink"
	 viewBox="0 0 512 512">
<path fill="#FFFFFF" opacity="1.000000" stroke="none" 
	d="
M287.000000,513.000000 
	C191.356552,513.000000 96.213104,513.000000 1.034826,513.000000 
	C1.034826,342.398193 1.034826,171.796371 1.034826,1.097280 
	C171.560135,1.097280 342.120331,1.097280 512.840271,1.097280 
	C512.840271,171.666550 512.840271,342.333252 512.840271,513.000000 
	C437.796356,513.000000 362.648163,513.000000 287.000000,513.000000 
M262.100494,306.050293 
	C262.127777,280.154053 262.155090,254.257828 262.692688,228.992905 
	C265.561432,240.254913 268.302704,251.552094 271.393982,262.752686 
	C272.111725,265.353149 274.022522,267.624329 275.384338,270.047028 
	C276.969299,267.602631 279.121033,265.350159 280.026611,262.675751 
	C282.222412,256.191193 283.838104,249.510178 286.024811,241.704483 
	C287.742310,246.652740 288.822632,250.298569 290.314484,253.767380 
	C290.820892,254.944794 292.505981,256.547760 293.403107,256.403687 
	C294.712952,256.193359 296.368439,254.805115 296.870178,253.524643 
	C298.308777,249.853180 299.241028,245.983322 300.669983,241.193741 
	C301.266937,243.414474 301.677856,244.647629 301.925262,245.912781 
	C303.297150,252.928513 304.506165,259.979645 306.072388,266.950958 
	C306.411133,268.458801 307.985870,269.688965 308.991302,271.047028 
	C310.242767,269.751617 311.559875,268.510803 312.708282,267.129669 
	C313.084564,266.677124 313.006165,265.856232 313.163513,265.210541 
	C315.183868,256.921143 317.209290,248.632965 319.521301,239.165543 
	C321.194092,244.407089 322.294495,248.573792 323.893524,252.539413 
	C324.611847,254.320831 326.327148,255.700272 327.590027,257.262115 
	C329.291534,255.881210 331.359955,254.766617 332.603394,253.053284 
	C334.228119,250.814651 335.200043,248.102264 336.452789,245.593689 
	C339.428436,252.053452 340.918854,258.168213 342.891815,264.123077 
	C343.513336,265.998840 345.428680,267.445892 346.751892,269.089142 
	C348.021393,267.348572 349.656921,265.760956 350.464935,263.827545 
	C351.410400,261.565216 351.632416,259.001038 352.172424,256.568695 
	C353.694611,249.712250 355.218964,242.856262 356.742432,236.000107 
	C358.119965,237.881882 358.551666,239.637787 358.938477,241.403534 
	C360.681030,249.357880 362.193085,257.373322 364.297119,265.230499 
	C364.827972,267.212830 367.236481,268.692383 368.782135,270.402985 
	C370.469635,268.799713 372.538269,267.435760 373.737366,265.525848 
	C374.934387,263.619324 375.587585,261.210907 375.898743,258.942902 
	C376.502014,254.545883 378.877472,253.593689 383.003479,253.762085 
	C391.153900,254.094757 399.330872,253.976028 407.488495,253.746475 
	C408.936676,253.705719 410.344330,252.224518 411.770691,251.408463 
	C410.342438,250.606277 408.928345,249.140030 407.483673,249.109238 
	C397.824493,248.903427 388.150604,248.797836 378.502350,249.182526 
	C376.629791,249.257172 374.089355,251.246033 373.188599,253.025848 
	C371.472321,256.417114 370.716156,260.294281 369.561371,263.969727 
	C367.439789,258.635529 366.308014,253.343658 365.110016,248.066833 
	C363.749268,242.073288 362.471527,236.053604 360.824615,230.138016 
	C360.460114,228.828552 358.786102,227.170975 357.556000,227.026337 
	C356.444946,226.895706 354.633942,228.360367 353.992706,229.575806 
	C352.931213,231.587784 352.434143,233.935898 351.923492,236.193115 
	C350.176422,243.915390 348.526978,251.659760 346.578369,260.597046 
	C344.797394,254.527710 343.684723,249.646271 341.919312,245.013596 
	C339.999542,239.975800 335.459381,239.613892 332.461060,244.105469 
	C330.894440,246.452286 329.757538,249.085968 328.043457,252.310867 
	C326.537781,247.408554 325.559174,243.190994 323.917694,239.249527 
	C322.866730,236.725998 320.837219,234.610001 319.246429,232.311310 
	C317.838318,234.749649 315.895691,237.031235 315.125854,239.656723 
	C313.101929,246.559036 311.588409,253.611023 309.554474,261.894897 
	C307.565399,251.829605 305.959137,243.165894 304.049866,234.569458 
	C303.733673,233.145874 302.093353,232.016373 301.064972,230.750961 
	C299.989166,231.994263 298.397064,233.070694 297.931458,234.511230 
	C296.341858,239.428986 295.148621,244.474838 293.580872,250.301636 
	C291.817444,245.376251 290.528442,241.259277 288.815613,237.326920 
	C288.341034,236.237350 286.655853,235.203079 285.433716,235.082916 
	C284.664276,235.007294 283.500397,236.553665 282.919434,237.598221 
	C282.290924,238.728195 282.131622,240.119980 281.772858,241.399017 
	C279.865082,248.200195 277.959015,255.001801 275.724426,262.972961 
	C271.775635,247.497635 268.161133,233.332306 264.546600,219.166977 
	C264.092072,219.192642 263.637512,219.218323 263.182983,219.244003 
	C262.707397,221.241608 262.231812,223.239212 261.298676,225.718185 
	C260.835052,227.796783 260.371429,229.875381 259.380981,232.468231 
	C257.481659,239.333984 255.717514,246.242172 253.584488,253.034546 
	C253.074905,254.657242 251.335373,255.893723 250.161545,257.307831 
	C249.012878,256.044281 247.525162,254.950150 246.790436,253.479767 
	C245.502335,250.901886 244.675934,248.093323 243.225845,244.237213 
	C241.114487,250.293182 239.556183,255.332352 237.552719,260.187866 
	C236.888229,261.798309 235.079208,262.936493 233.793472,264.290588 
	C232.597000,262.720520 230.777237,261.314667 230.312668,259.551727 
	C228.370270,252.180725 226.921249,244.681000 225.079437,237.281189 
	C224.694168,235.733337 223.409943,234.409225 221.807327,231.780090 
	C220.547913,236.923737 219.725021,240.284927 218.901962,243.646088 
	C216.773224,252.339279 214.775955,261.068726 212.397430,269.693054 
	C211.955750,271.294586 209.851608,273.681488 208.740341,273.564423 
	C207.052460,273.386658 205.143311,271.607758 204.100830,270.006073 
	C202.972214,268.272034 202.672714,265.976410 202.111771,263.898712 
	C200.065842,256.320526 198.061737,248.731049 195.712692,239.909683 
	C194.612305,242.042389 194.115738,242.847214 193.763580,243.710907 
	C188.131943,257.522858 189.104538,272.041870 189.223541,286.466553 
	C189.250519,289.736633 191.464737,289.886658 194.023514,290.037170 
	C200.645172,290.426788 207.323990,290.625061 213.851257,291.689240 
	C231.527222,294.570953 247.369919,301.972809 262.446320,312.780884 
	C263.304749,312.855621 264.163177,312.930359 264.868622,313.709900 
	C262.761261,313.638885 260.340546,314.225983 258.595032,313.394958 
	C241.233231,305.128998 223.105576,299.515991 203.934006,297.878906 
	C196.143051,297.213593 188.247879,297.769012 179.810150,297.769012 
	C179.810150,290.809967 179.810150,284.080322 179.810150,277.391510 
	C177.567688,276.674896 175.874527,276.133820 173.774643,275.462769 
	C173.774643,276.880798 173.762054,278.010010 173.776672,279.138855 
	C173.871140,286.433594 173.971542,293.728241 174.093948,301.565704 
	C174.385895,301.758484 174.677856,301.951233 175.485321,302.832275 
	C176.143417,302.904755 176.805786,303.067627 177.459000,303.036774 
	C206.295303,301.675842 233.589294,307.370758 259.301178,320.635468 
	C260.753815,321.384888 263.287201,321.255554 264.796539,320.497589 
	C289.964447,307.859619 316.536163,301.766327 344.710480,303.066284 
	C348.610016,303.246185 350.188599,301.846283 350.072662,297.944183 
	C349.875183,291.295319 349.920044,284.639252 350.001038,277.165497 
	C348.044861,277.439148 346.088684,277.712830 343.985291,278.914673 
	C343.973297,283.899292 343.846069,288.887268 343.992340,293.867249 
	C344.080719,296.875763 342.964661,298.135986 339.925262,297.943634 
	C334.846771,297.622253 329.663177,296.731842 324.694000,297.381775 
	C314.692505,298.690002 304.644775,300.270172 294.915527,302.861908 
	C284.753418,305.568909 274.943298,309.597321 264.458527,312.429016 
	C277.422302,302.392670 292.323608,296.603149 308.143982,293.202087 
	C316.325378,291.443237 324.738556,290.762512 333.585602,289.238831 
	C333.692780,288.837219 333.799957,288.435577 334.089478,287.107635 
	C334.089478,277.866852 334.089478,268.626068 334.089478,259.161285 
	C330.181580,260.952271 328.763580,263.453583 329.019653,267.484100 
	C329.395386,273.398315 329.116455,279.354156 329.116455,285.568451 
	C304.482849,286.809479 282.365204,294.032013 262.287994,307.185760 
	C262.287994,307.185760 262.025970,306.981201 262.100494,306.050293 
M334.003265,188.500687 
	C334.003265,188.500687 333.780670,188.070694 333.510315,187.374741 
	C331.587219,187.079330 329.666168,186.541428 327.740753,186.525436 
	C304.226868,186.330048 282.280518,192.031128 261.403625,203.932083 
	C243.440353,193.122803 224.080170,187.101624 202.316849,186.515762 
	C200.492416,186.439056 198.667526,186.287201 196.843658,186.298874 
	C189.550659,186.345505 189.685913,186.841705 189.224655,193.886932 
	C188.109283,210.923462 192.121872,228.322021 185.076706,244.993546 
	C182.380417,251.374008 181.255157,258.418396 179.414001,265.160248 
	C177.919525,263.396484 177.443665,261.843018 177.078583,260.263916 
	C174.761002,250.239288 172.601120,240.174896 170.049103,230.210724 
	C169.564941,228.320404 167.558044,226.820068 166.253738,225.139786 
	C164.550507,226.856979 162.213623,228.292435 161.295029,230.358475 
	C159.972076,233.333908 159.682678,236.768311 158.947632,240.005798 
	C157.677139,245.601624 156.403107,251.196655 154.804871,258.224182 
	C152.678635,250.181137 151.119843,243.609955 149.111908,237.179001 
	C148.629791,235.634888 146.453690,233.347885 145.410919,233.522141 
	C143.400208,233.858200 140.815063,235.290863 139.950592,237.013000 
	C138.119873,240.660065 137.241486,244.785172 135.061111,248.938583 
	C124.745872,249.036133 114.430634,249.133682 103.450836,249.407547 
	C100.603722,253.561676 103.728149,253.825272 106.529716,253.851913 
	C115.861038,253.940643 125.194412,253.806015 134.525955,253.882767 
	C137.629242,253.908295 139.477539,252.769302 140.371460,249.688675 
	C141.466019,245.916641 142.896072,242.241974 144.475266,237.674271 
	C145.179520,240.241058 145.636780,241.835724 146.053986,243.440796 
	C147.685364,249.717209 149.123077,256.053497 151.056595,262.234985 
	C151.531525,263.753326 153.472824,265.461365 155.000549,265.763184 
	C155.943298,265.949432 157.595398,263.786682 158.522369,262.405640 
	C159.222733,261.362152 159.321579,259.896027 159.615128,258.601471 
	C161.507309,250.256805 163.379364,241.907593 165.512589,232.428726 
	C166.207275,234.619629 166.619751,235.674133 166.875473,236.765381 
	C169.264618,246.960281 171.468964,257.203186 174.142273,267.322449 
	C174.624298,269.147064 176.937790,271.608887 178.525085,271.700134 
	C180.061951,271.788483 182.563629,269.501709 183.222382,267.730408 
	C185.126129,262.611237 186.186920,257.186249 187.821625,251.957275 
	C189.392258,246.933167 191.266647,242.004028 193.818726,236.864502 
	C198.341934,235.934113 199.684158,239.215164 200.641586,242.412186 
	C202.541031,248.754852 204.044983,255.215027 205.865784,261.582764 
	C206.317810,263.163574 207.355850,264.576843 208.650436,267.086761 
	C209.448471,264.821350 209.901169,263.808350 210.164017,262.748291 
	C213.154587,250.687805 216.018372,238.594360 219.182449,226.579895 
	C219.705780,224.592712 221.508911,222.942581 222.720627,221.136688 
	C224.051422,222.988968 226.037399,224.663849 226.595566,226.725311 
	C228.627213,234.228577 230.126236,241.874451 231.953934,249.435638 
	C232.416779,251.350464 233.353500,253.150757 234.072479,255.003662 
	C236.470535,251.499725 237.388412,247.989471 238.984711,244.821045 
	C239.913025,242.978439 241.929581,241.684097 243.456482,240.143051 
	C244.868393,241.605972 246.513947,242.913361 247.622269,244.578354 
	C248.604843,246.054459 248.990417,247.927963 249.639526,249.626038 
	C252.157211,243.632401 253.507156,237.843231 255.263412,232.180084 
	C257.057922,226.393539 259.251160,220.730652 261.301880,215.135544 
	C261.301880,215.135544 261.224762,215.007385 261.646057,214.122849 
	C261.873444,212.526016 262.100830,210.929169 262.991364,209.135162 
	C283.202271,196.858597 305.132172,191.072678 329.281189,191.274445 
	C329.281189,207.694748 329.281189,223.681229 329.281189,239.667725 
	C329.707611,239.845108 330.134003,240.022491 330.560425,240.199890 
	C331.751526,238.273758 333.946106,236.362305 333.974579,234.419144 
	C334.196411,219.276230 334.001495,204.127213 334.003265,188.500687 
M96.454834,254.095734 
	C96.459511,252.064056 96.900620,249.869110 96.234467,248.088394 
	C95.998177,247.456741 92.610054,247.171967 91.497238,247.940292 
	C90.436478,248.672668 89.661644,252.012756 90.166382,252.406921 
	C91.669815,253.580963 93.863976,253.870529 96.454834,254.095734 
M416.893280,251.239868 
	C418.543182,252.458099 420.067017,254.068390 421.917328,254.663422 
	C422.496857,254.849808 424.315765,252.433807 424.861572,250.949478 
	C425.137909,250.198059 423.614136,247.884201 423.292847,247.958435 
	C421.076263,248.470642 417.636017,246.216217 416.893280,251.239868 
z"/>
<path fill="#2DA1D7" opacity="1.000000" stroke="none" 
	d="
M203.022278,186.899582 
	C224.080170,187.101624 243.440353,193.122803 261.738281,204.486481 
	C262.158020,206.471375 262.243103,207.901855 262.328217,209.332336 
	C262.100830,210.929169 261.873444,212.526016 261.446533,214.543304 
	C261.247040,214.963776 261.269867,215.013641 261.269867,215.013641 
	C259.251160,220.730652 257.057922,226.393539 255.263412,232.180084 
	C253.507156,237.843231 252.157211,243.632401 249.639526,249.626038 
	C248.990417,247.927963 248.604843,246.054459 247.622269,244.578354 
	C246.513947,242.913361 244.868393,241.605972 243.456482,240.143051 
	C241.929581,241.684097 239.913025,242.978439 238.984711,244.821045 
	C237.388412,247.989471 236.470535,251.499725 234.072479,255.003662 
	C233.353500,253.150757 232.416779,251.350464 231.953934,249.435638 
	C230.126236,241.874451 228.627213,234.228577 226.595566,226.725311 
	C226.037399,224.663849 224.051422,222.988968 222.720627,221.136688 
	C221.508911,222.942581 219.705780,224.592712 219.182449,226.579895 
	C216.018372,238.594360 213.154587,250.687805 210.164017,262.748291 
	C209.901169,263.808350 209.448471,264.821350 208.650436,267.086761 
	C207.355850,264.576843 206.317810,263.163574 205.865784,261.582764 
	C204.044983,255.215027 202.541031,248.754852 200.641586,242.412186 
	C199.684158,239.215164 198.341934,235.934113 193.440201,236.591812 
	C193.163757,235.221146 193.541016,234.062729 193.315674,233.036652 
	C192.672607,230.108200 191.413361,227.274612 191.087555,224.327332 
	C190.689194,220.723602 191.205353,217.027359 190.950623,213.397461 
	C190.323242,204.457840 192.806427,196.962357 200.098648,191.282181 
	C201.413406,190.258087 202.064682,188.382217 203.022278,186.899582 
z"/>
<path fill="#2EA3D8" opacity="1.000000" stroke="none" 
	d="
M261.929016,312.260529 
	C247.369919,301.972809 231.527222,294.570953 213.851257,291.689240 
	C207.323990,290.625061 200.645172,290.426788 194.023514,290.037170 
	C191.464737,289.886658 189.250519,289.736633 189.223541,286.466553 
	C189.104538,272.041870 188.131943,257.522858 193.763580,243.710907 
	C194.115738,242.847214 194.612305,242.042389 195.712692,239.909683 
	C198.061737,248.731049 200.065842,256.320526 202.111771,263.898712 
	C202.672714,265.976410 202.972214,268.272034 204.100830,270.006073 
	C205.143311,271.607758 207.052460,273.386658 208.740341,273.564423 
	C209.851608,273.681488 211.955750,271.294586 212.397430,269.693054 
	C214.775955,261.068726 216.773224,252.339279 218.901962,243.646088 
	C219.725021,240.284927 220.547913,236.923737 221.807327,231.780090 
	C223.409943,234.409225 224.694168,235.733337 225.079437,237.281189 
	C226.921249,244.681000 228.370270,252.180725 230.312668,259.551727 
	C230.777237,261.314667 232.597000,262.720520 233.793457,264.290588 
	C235.079208,262.936493 236.888229,261.798309 237.552719,260.187866 
	C239.556183,255.332352 241.114487,250.293182 243.225845,244.237213 
	C244.675934,248.093323 245.502335,250.901886 246.790436,253.479767 
	C247.525162,254.950150 249.012878,256.044281 250.161545,257.307831 
	C251.335373,255.893723 253.074905,254.657242 253.584488,253.034546 
	C255.717514,246.242172 257.481659,239.333984 259.958282,232.496918 
	C260.691132,234.328293 260.979401,236.130768 260.982025,237.933670 
	C261.013123,259.232849 260.977997,280.532166 261.045532,301.831207 
	C261.050964,303.548889 261.684357,305.264587 262.025970,306.981201 
	C262.025970,306.981201 262.287994,307.185760 262.222504,307.714722 
	C262.081024,309.582611 262.005005,310.921570 261.929016,312.260529 
z"/>
<path fill="#696C6C" opacity="1.000000" stroke="none" 
	d="
M261.756226,225.236801 
	C262.231812,223.239212 262.707397,221.241608 263.182983,219.244003 
	C263.637512,219.218323 264.092072,219.192642 264.546600,219.166977 
	C268.161133,233.332306 271.775635,247.497635 275.724426,262.972961 
	C277.959015,255.001801 279.865082,248.200195 281.772858,241.399017 
	C282.131622,240.119980 282.290924,238.728195 282.919434,237.598221 
	C283.500397,236.553665 284.664276,235.007294 285.433716,235.082916 
	C286.655853,235.203079 288.341034,236.237350 288.815613,237.326920 
	C290.528442,241.259277 291.817444,245.376251 293.580872,250.301636 
	C295.148621,244.474838 296.341858,239.428986 297.931458,234.511230 
	C298.397064,233.070694 299.989166,231.994263 301.064972,230.750961 
	C302.093353,232.016373 303.733673,233.145874 304.049866,234.569458 
	C305.959137,243.165894 307.565399,251.829605 309.554474,261.894897 
	C311.588409,253.611023 313.101929,246.559036 315.125854,239.656723 
	C315.895691,237.031235 317.838318,234.749649 319.246429,232.311310 
	C320.837219,234.610001 322.866730,236.725998 323.917694,239.249527 
	C325.559174,243.190994 326.537781,247.408554 328.043457,252.310867 
	C329.757538,249.085968 330.894440,246.452286 332.461060,244.105469 
	C335.459381,239.613892 339.999542,239.975800 341.919312,245.013596 
	C343.684723,249.646271 344.797394,254.527710 346.578369,260.597046 
	C348.526978,251.659760 350.176422,243.915390 351.923492,236.193115 
	C352.434143,233.935898 352.931213,231.587784 353.992706,229.575806 
	C354.633942,228.360367 356.444946,226.895706 357.556000,227.026337 
	C358.786102,227.170975 360.460114,228.828552 360.824615,230.138016 
	C362.471527,236.053604 363.749268,242.073288 365.110016,248.066833 
	C366.308014,253.343658 367.439789,258.635529 369.561371,263.969727 
	C370.716156,260.294281 371.472321,256.417114 373.188599,253.025848 
	C374.089355,251.246033 376.629791,249.257172 378.502350,249.182526 
	C388.150604,248.797836 397.824493,248.903427 407.483673,249.109238 
	C408.928345,249.140030 410.342438,250.606277 411.770691,251.408463 
	C410.344330,252.224518 408.936676,253.705719 407.488495,253.746475 
	C399.330872,253.976028 391.153900,254.094757 383.003479,253.762085 
	C378.877472,253.593689 376.502014,254.545883 375.898743,258.942902 
	C375.587585,261.210907 374.934387,263.619324 373.737366,265.525848 
	C372.538269,267.435760 370.469635,268.799713 368.782135,270.402985 
	C367.236481,268.692383 364.827972,267.212830 364.297119,265.230499 
	C362.193085,257.373322 360.681030,249.357880 358.938477,241.403534 
	C358.551666,239.637787 358.119965,237.881882 356.742432,236.000107 
	C355.218964,242.856262 353.694611,249.712250 352.172424,256.568695 
	C351.632416,259.001038 351.410400,261.565216 350.464935,263.827545 
	C349.656921,265.760956 348.021393,267.348572 346.751892,269.089142 
	C345.428680,267.445892 343.513336,265.998840 342.891815,264.123077 
	C340.918854,258.168213 339.428436,252.053452 336.452789,245.593689 
	C335.200043,248.102264 334.228119,250.814651 332.603394,253.053284 
	C331.359955,254.766617 329.291534,255.881210 327.590027,257.262115 
	C326.327148,255.700272 324.611847,254.320831 323.893524,252.539413 
	C322.294495,248.573792 321.194092,244.407089 319.521301,239.165543 
	C317.209290,248.632965 315.183868,256.921143 313.163513,265.210541 
	C313.006165,265.856232 313.084564,266.677124 312.708282,267.129669 
	C311.559875,268.510803 310.242767,269.751617 308.991302,271.047028 
	C307.985870,269.688965 306.411133,268.458801 306.072388,266.950958 
	C304.506165,259.979645 303.297150,252.928513 301.925262,245.912781 
	C301.677856,244.647629 301.266937,243.414474 300.669983,241.193741 
	C299.241028,245.983322 298.308777,249.853180 296.870178,253.524643 
	C296.368439,254.805115 294.712952,256.193359 293.403107,256.403687 
	C292.505981,256.547760 290.820892,254.944794 290.314484,253.767380 
	C288.822632,250.298569 287.742310,246.652740 286.024811,241.704483 
	C283.838104,249.510178 282.222412,256.191193 280.026611,262.675751 
	C279.121033,265.350159 276.969299,267.602631 275.384338,270.047028 
	C274.022522,267.624329 272.111725,265.353149 271.393982,262.752686 
	C268.302704,251.552094 265.561432,240.254913 262.412689,228.372986 
	C262.007202,226.914307 261.881683,226.075562 261.756226,225.236801 
z"/>
<path fill="#696C6E" opacity="1.000000" stroke="none" 
	d="
M174.069992,301.022919 
	C173.971542,293.728241 173.871140,286.433594 173.776672,279.138855 
	C173.762054,278.010010 173.774643,276.880798 173.774643,275.462769 
	C175.874527,276.133820 177.567688,276.674896 179.810150,277.391510 
	C179.810150,284.080322 179.810150,290.809967 179.810150,297.769012 
	C188.247879,297.769012 196.143051,297.213593 203.934006,297.878906 
	C223.105576,299.515991 241.233231,305.128998 258.595032,313.394958 
	C260.340546,314.225983 262.761261,313.638885 264.930603,313.362976 
	C264.992584,313.016052 264.979309,313.048096 264.979309,313.048096 
	C274.943298,309.597321 284.753418,305.568909 294.915527,302.861908 
	C304.644775,300.270172 314.692505,298.690002 324.694000,297.381775 
	C329.663177,296.731842 334.846771,297.622253 339.925262,297.943634 
	C342.964661,298.135986 344.080719,296.875763 343.992340,293.867249 
	C343.846069,288.887268 343.973297,283.899292 344.468018,278.457336 
	C346.588226,277.995392 348.225647,277.990814 349.863098,277.986206 
	C349.920044,284.639252 349.875183,291.295319 350.072662,297.944183 
	C350.188599,301.846283 348.610016,303.246185 344.710480,303.066284 
	C316.536163,301.766327 289.964447,307.859619 264.796539,320.497589 
	C263.287201,321.255554 260.753815,321.384888 259.301178,320.635468 
	C233.589294,307.370758 206.295303,301.675842 177.459000,303.036774 
	C176.805786,303.067627 176.143417,302.904755 175.142853,302.251953 
	C174.556931,301.455383 174.313461,301.239136 174.069992,301.022919 
z"/>
<path fill="#3AA5D9" opacity="1.000000" stroke="none" 
	d="
M202.669571,186.707672 
	C202.064682,188.382217 201.413406,190.258087 200.098648,191.282181 
	C192.806427,196.962357 190.323242,204.457840 190.950623,213.397461 
	C191.205353,217.027359 190.689194,220.723602 191.087555,224.327332 
	C191.413361,227.274612 192.672607,230.108200 193.315674,233.036652 
	C193.541016,234.062729 193.163757,235.221146 193.034622,236.676132 
	C191.266647,242.004028 189.392258,246.933167 187.821625,251.957275 
	C186.186920,257.186249 185.126129,262.611237 183.222382,267.730408 
	C182.563629,269.501709 180.061951,271.788483 178.525085,271.700134 
	C176.937790,271.608887 174.624298,269.147064 174.142273,267.322449 
	C171.468964,257.203186 169.264618,246.960281 166.875473,236.765381 
	C166.619751,235.674133 166.207275,234.619629 165.512589,232.428726 
	C163.379364,241.907593 161.507309,250.256805 159.615128,258.601471 
	C159.321579,259.896027 159.222733,261.362152 158.522369,262.405640 
	C157.595398,263.786682 155.943298,265.949432 155.000549,265.763184 
	C153.472824,265.461365 151.531525,263.753326 151.056595,262.234985 
	C149.123077,256.053497 147.685364,249.717209 146.053986,243.440796 
	C145.636780,241.835724 145.179520,240.241058 144.475266,237.674271 
	C142.896072,242.241974 141.466019,245.916641 140.371460,249.688675 
	C139.477539,252.769302 137.629242,253.908295 134.525955,253.882767 
	C125.194412,253.806015 115.861038,253.940643 106.529716,253.851913 
	C103.728149,253.825272 100.603722,253.561676 104.095284,249.576782 
	C114.166100,249.830307 123.592506,249.953232 133.018753,249.941483 
	C134.003860,249.940262 134.987976,249.142456 135.972534,248.714233 
	C137.241486,244.785172 138.119873,240.660065 139.950592,237.013000 
	C140.815063,235.290863 143.400208,233.858200 145.410919,233.522141 
	C146.453690,233.347885 148.629791,235.634888 149.111908,237.179001 
	C151.119843,243.609955 152.678635,250.181137 154.804871,258.224182 
	C156.403107,251.196655 157.677139,245.601624 158.947632,240.005798 
	C159.682678,236.768311 159.972076,233.333908 161.295029,230.358475 
	C162.213623,228.292435 164.550507,226.856979 166.253738,225.139786 
	C167.558044,226.820068 169.564941,228.320404 170.049103,230.210724 
	C172.601120,240.174896 174.761002,250.239288 177.078583,260.263916 
	C177.443665,261.843018 177.919525,263.396484 179.414001,265.160248 
	C181.255157,258.418396 182.380417,251.374008 185.076706,244.993546 
	C192.121872,228.322021 188.109283,210.923462 189.224655,193.886932 
	C189.685913,186.841705 189.550659,186.345505 196.843658,186.298874 
	C198.667526,186.287201 200.492416,186.439056 202.669571,186.707672 
z"/>
<path fill="#6C6E6F" opacity="1.000000" stroke="none" 
	d="
M262.659790,209.233749 
	C262.243103,207.901855 262.158020,206.471375 262.075104,204.611069 
	C282.280518,192.031128 304.226868,186.330048 327.740753,186.525436 
	C329.666168,186.541428 331.587219,187.079330 333.506348,187.825806 
	C333.646729,188.511261 333.791046,188.745667 333.935364,188.980072 
	C334.001495,204.127213 334.196411,219.276230 333.974579,234.419144 
	C333.946106,236.362305 331.751526,238.273758 330.560425,240.199890 
	C330.134003,240.022491 329.707611,239.845108 329.281189,239.667725 
	C329.281189,223.681229 329.281189,207.694748 329.281189,191.274445 
	C305.132172,191.072678 283.202271,196.858597 262.659790,209.233749 
z"/>
<path fill="#6A6C6E" opacity="1.000000" stroke="none" 
	d="
M262.187653,312.520691 
	C262.005005,310.921570 262.081024,309.582611 262.253540,307.877991 
	C282.365204,294.032013 304.482849,286.809479 329.116455,285.568451 
	C329.116455,279.354156 329.395386,273.398315 329.019653,267.484100 
	C328.763580,263.453583 330.181580,260.952271 334.089478,259.161285 
	C334.089478,268.626068 334.089478,277.866852 333.756836,287.763611 
	C333.298462,288.811310 333.172729,289.202972 333.047028,289.594666 
	C324.738556,290.762512 316.325378,291.443237 308.143982,293.202087 
	C292.323608,296.603149 277.422302,302.392670 264.718933,312.738556 
	C264.979309,313.048096 264.992584,313.016052 265.007080,313.010559 
	C264.163177,312.930359 263.304749,312.855621 262.187653,312.520691 
z"/>
<path fill="#029AD5" opacity="1.000000" stroke="none" 
	d="
M261.527435,225.477493 
	C261.881683,226.075562 262.007202,226.914307 262.157532,228.057343 
	C262.155090,254.257828 262.127777,280.154053 262.063232,306.515747 
	C261.684357,305.264587 261.050964,303.548889 261.045532,301.831207 
	C260.977997,280.532166 261.013123,259.232849 260.982025,237.933670 
	C260.979401,236.130768 260.691132,234.328293 260.221680,232.239807 
	C260.371429,229.875381 260.835052,227.796783 261.527435,225.477493 
z"/>
<path fill="#3AA5D9" opacity="1.000000" stroke="none" 
	d="
M96.121552,254.300690 
	C93.863976,253.870529 91.669815,253.580963 90.166382,252.406921 
	C89.661644,252.012756 90.436478,248.672668 91.497238,247.940292 
	C92.610054,247.171967 95.998177,247.456741 96.234467,248.088394 
	C96.900620,249.869110 96.459511,252.064056 96.121552,254.300690 
z"/>
<path fill="#3AA5D9" opacity="1.000000" stroke="none" 
	d="
M416.893250,250.834229 
	C417.636017,246.216217 421.076263,248.470642 423.292847,247.958435 
	C423.614136,247.884201 425.137909,250.198059 424.861572,250.949478 
	C424.315765,252.433807 422.496857,254.849808 421.917328,254.663422 
	C420.067017,254.068390 418.543182,252.458099 416.893250,250.834229 
z"/>
<path fill="#029AD5" opacity="1.000000" stroke="none" 
	d="
M135.516830,248.826416 
	C134.987976,249.142456 134.003860,249.940262 133.018753,249.941483 
	C123.592506,249.953232 114.166100,249.830307 104.427567,249.488617 
	C114.430634,249.133682 124.745872,249.036133 135.516830,248.826416 
z"/>
<path fill="#5B5F61" opacity="1.000000" stroke="none" 
	d="
M349.932068,277.575867 
	C348.225647,277.990814 346.588226,277.995392 344.541626,277.993225 
	C346.088684,277.712830 348.044861,277.439148 349.932068,277.575867 
z"/>
<path fill="#6C6E6F" opacity="1.000000" stroke="none" 
	d="
M261.285889,215.074585 
	C261.269867,215.013641 261.247040,214.963776 261.235901,214.985580 
	C261.224762,215.007385 261.301880,215.135544 261.285889,215.074585 
z"/>
<path fill="#515657" opacity="1.000000" stroke="none" 
	d="
M333.969299,188.740387 
	C333.791046,188.745667 333.646729,188.511261 333.641541,188.173767 
	C333.780670,188.070694 334.003265,188.500687 333.969299,188.740387 
z"/>
<path fill="#515657" opacity="1.000000" stroke="none" 
	d="
M333.316315,289.416748 
	C333.172729,289.202972 333.298462,288.811310 333.665649,288.226776 
	C333.799957,288.435577 333.692780,288.837219 333.316315,289.416748 
z"/>
<path fill="#515657" opacity="1.000000" stroke="none" 
	d="
M174.081970,301.294312 
	C174.313461,301.239136 174.556931,301.455383 174.885101,301.907776 
	C174.677856,301.951233 174.385895,301.758484 174.081970,301.294312 
z"/>
</svg>
